# xmcd
# 
# Track frame offsets:
#     150
#     18239
#     33552
#     56745
#     70789
#     92573
#     106443
#     120254
#     132623
#     154629
#     163577
#     183583
#     200145
#     216731
#     231773
#     251779
#     266031
#     283306
#     303617
#     321063
#     338152
# 
# Disc length: 4652
# 
# Revision: 4
# Processed by: cddbd v1.5.2PL0 Copyright (c) Steve Scherf et al.
# Submitted via: fre:ac v1.0.31
# 
DISCID=45122a15
DTITLE=Viikate - Parrun Pätkiä (Ranka EP:t 2000-2004)
DYEAR=2006
DGENRE=Rock
TTITLE0=Kuolleen Miehen Kupletti
TTITLE1=Kaakko
TTITLE2=Katoan
TTITLE3=Sirkkelimiehen Viitonen
TTITLE4=Vasten Kuutamon Siltaa (Night Of The Vampire)
TTITLE5=Kaiho De Gracè
TTITLE6=Ei Koiria
TTITLE7=Reino Helismaa
TTITLE8=Kevyesti Keskellä Päivää
TTITLE9=Iltasoitto
TTITLE10=Armahda Lapset (aiemmin ainoastaan 10" savikiekolla)
TTITLE11=Aimon Virsi
TTITLE12=Pieni Vesimylly
TTITLE13=Silmät Sinestä
TTITLE14=Kuulas
TTITLE15=Mandschurian Kummut
TTITLE16=Alakulotettuja Tunnelmia
TTITLE17=Taisto-vainaan Valssi
TTITLE18=Sepedeus
TTITLE19=Siunattu Hiljaisuudessa
TTITLE20=Taivaallinen Mies (Live 1997)
EXTD=
EXTT0=
EXTT1=
EXTT2=
EXTT3=
EXTT4=
EXTT5=
EXTT6=
EXTT7=
EXTT8=
EXTT9=
EXTT10=
EXTT11=
EXTT12=
EXTT13=
EXTT14=
EXTT15=
EXTT16=
EXTT17=
EXTT18=
EXTT19=
EXTT20=
PLAYORDER=
